<svg width="84" height="32" viewBox="0 0 84 32" fill="none" xmlns="http://www.w3.org/2000/svg">
<path d="M12.9168 16.0135C12.3396 15.1945 11.7854 14.4078 11.3151 13.7244C11.1748 13.5207 11.0292 13.3211 10.8836 13.122C10.6129 12.7522 10.3417 12.3829 10.1092 11.9842C9.93248 11.683 9.75166 11.3848 9.57024 11.0871C9.51564 10.9985 9.45928 10.911 9.40233 10.8241C9.36651 10.7695 9.33129 10.7149 9.29606 10.6597C9.18686 10.4883 9.07942 10.3157 8.97139 10.1436C8.6567 9.64048 8.34201 9.13733 7.99444 8.65649C7.84767 8.45335 7.72613 8.2279 7.60578 8.0048C7.59345 7.9819 7.58112 7.95901 7.56879 7.93611C7.35978 7.54979 7.15664 7.15995 6.9582 6.76718C6.7122 6.28047 6.78089 5.92057 7.27465 5.62702C7.53943 5.47026 7.82359 5.37162 8.12008 5.31585C8.625 5.22074 9.13226 5.1403 9.64715 5.14265C9.78219 5.14324 9.91898 5.14383 10.0534 5.13267C10.4151 5.10156 10.7691 5.1585 11.119 5.236C11.4572 5.31115 11.793 5.39863 12.1289 5.48552C12.187 5.50079 12.2457 5.51605 12.3044 5.53132C12.4071 5.55774 12.5081 5.59473 12.6068 5.63641C12.8856 5.75501 13.0952 5.94523 13.2326 6.23467C13.3084 6.39437 13.3994 6.54584 13.4904 6.6979C13.5379 6.77716 13.5861 6.85642 13.6313 6.93685C13.7692 7.18109 13.9066 7.42591 14.044 7.67015V7.67132C14.2783 8.08758 14.5119 8.50384 14.7485 8.91834C15.0209 9.39507 15.2992 9.86769 15.5799 10.3386C15.8816 10.8435 16.1869 11.346 16.4952 11.8468C16.6149 12.0418 16.7447 12.2302 16.8756 12.4181C16.8973 12.4492 16.9296 12.4721 16.959 12.4926C16.9719 12.5015 16.9842 12.5103 16.9948 12.5191C17.0923 12.4856 17.1234 12.4122 17.1539 12.3418C17.1592 12.33 17.1639 12.3177 17.1692 12.3059C17.1909 12.2602 17.212 12.2144 17.2332 12.1686L17.2338 12.168C17.3729 11.8697 17.512 11.5709 17.6459 11.2691C17.7798 10.9691 17.9119 10.6673 18.044 10.3661C18.1972 10.0162 18.3504 9.66632 18.5066 9.31816C18.6998 8.88488 18.8947 8.45276 19.089 8.02065L19.0902 8.01889V8.0183V8.01772C19.3679 7.40125 19.6456 6.78479 19.9198 6.16657C20.0084 5.96578 20.0859 5.75912 20.1634 5.55304C20.2057 5.43973 20.2485 5.32642 20.2926 5.21428C20.3478 5.07631 20.4024 4.93775 20.457 4.7992L20.4599 4.79156C20.6953 4.19565 20.9308 3.60091 21.1727 3.00852C21.239 2.84589 21.3212 2.69031 21.4034 2.53531C21.4333 2.47836 21.4633 2.42141 21.4926 2.36387C21.5484 2.25467 21.6048 2.14664 21.6617 2.03803V2.03744C21.7439 1.88068 21.8261 1.72393 21.9048 1.56541C22.0527 1.26774 22.2711 1.05228 22.56 0.904913C23.0579 0.652456 23.5751 0.455775 24.1011 0.280817C24.5732 0.124647 25.0617 0.0876592 25.5507 0.0500843L25.59 0.0471488C25.7116 0.0383421 25.8331 0.0295355 25.9546 0.021316C26.0163 0.0172063 26.0779 0.0130965 26.1396 0.00839967C26.1531 0.00781256 26.166 0.00605124 26.1795 0.00487702C26.2048 0.00194149 26.2306 -0.00158116 26.2558 0.000767273C26.2729 0.00194149 26.2905 0.0031157 26.3075 0.00428992C26.86 0.0465616 27.4118 0.0888334 27.9291 0.328373C28.2185 0.462234 28.4005 0.667134 28.4193 1.01059C28.4223 1.06872 28.4363 1.12566 28.4534 1.19201C28.4616 1.22606 28.4704 1.26246 28.4786 1.30238C28.4463 1.47147 28.3647 1.64995 28.2585 1.82256C28.171 1.96523 28.1029 2.12316 28.0442 2.28168C28.0166 2.35507 27.9896 2.42904 27.9625 2.50243C27.7676 3.03141 27.5733 3.55981 27.3279 4.06707C27.2111 4.30837 27.096 4.55026 26.9815 4.79274C26.8306 5.11154 26.6803 5.42975 26.5241 5.7462C26.4149 5.96754 26.3004 6.18653 26.186 6.40552C26.0409 6.68322 25.8959 6.95975 25.7615 7.24215C25.3294 8.1504 24.9055 9.06218 24.481 9.97396V9.97455C24.3648 10.2241 24.2485 10.4736 24.1323 10.7231C23.8822 11.2591 23.5992 11.7752 23.3068 12.2866C23.1729 12.5202 23.0473 12.761 22.9451 13.0099C22.6175 13.8048 22.2341 14.5704 21.8508 15.3366L21.8461 15.346C21.7556 15.5274 21.6641 15.7082 21.5731 15.8891C21.3048 16.4227 21.0364 16.9558 20.7787 17.4948C20.5914 17.8876 20.4112 18.2839 20.2309 18.6802C20.0671 19.0401 19.9033 19.4 19.7342 19.7575C19.4254 20.408 19.1066 21.0538 18.7784 21.6944C18.5189 22.2011 18.2483 22.7024 17.9659 23.1962C17.7486 23.5761 17.5144 23.9459 17.2801 24.3158L17.279 24.3176L17.242 24.3763L17.2244 24.4039L17.215 24.4191C16.6549 25.3039 16.0648 26.1664 15.4096 26.9778C15.1519 27.2971 14.8759 27.6019 14.6006 27.906C14.5636 27.9465 14.5266 27.987 14.4902 28.0275C14.3229 28.2124 14.1514 28.3933 13.98 28.5735L13.9794 28.5741C13.8855 28.6733 13.7921 28.772 13.6988 28.8718C13.3459 29.2493 12.9473 29.5693 12.5469 29.8875C12.0684 30.2679 11.5511 30.5838 11.0116 30.8621L11.0028 30.8662L10.9946 30.8709C10.9482 30.8949 10.9018 30.9184 10.8542 30.939C10.0217 31.3 9.18216 31.6341 8.29152 31.8114C8.25101 31.8196 8.2105 31.8279 8.16999 31.8361C7.7913 31.9124 7.41262 31.9881 7.02865 31.9987C6.78207 32.0057 6.53489 31.9829 6.28772 31.9594C6.19731 31.9511 6.10631 31.9423 6.01589 31.9353C5.94426 31.93 5.87322 31.9212 5.8016 31.9118C5.72938 31.9024 5.65658 31.8924 5.58378 31.8872C4.59509 31.8144 3.65396 31.5601 2.78974 31.0494C2.2584 30.7352 1.75936 30.3671 1.37363 29.8616C1.16286 29.5857 0.974401 29.2921 0.838192 28.9651C0.794746 28.8612 0.749539 28.7573 0.704919 28.654C0.633879 28.4913 0.562839 28.3287 0.498844 28.1631C0.272221 27.5801 0.144818 26.9713 0.0649717 26.3484C-0.00430701 25.8047 -0.0230944 25.2575 0.0326807 24.7186C0.121921 23.8538 0.307447 23.0083 0.719009 22.2351C0.786527 22.1083 0.851108 21.9803 0.916277 21.8517C1.07362 21.5435 1.23038 21.2353 1.41767 20.9446L1.43058 20.9253C1.75114 20.4292 2.07405 19.9295 2.51027 19.5368C2.62593 19.4334 2.73866 19.3266 2.85197 19.2197C3.12615 18.9614 3.40092 18.7019 3.7068 18.4835C4.12482 18.1852 4.5763 17.9674 5.07065 17.83C5.66069 17.6662 6.25837 17.6169 6.85604 17.6862C7.76664 17.7919 8.51579 18.2076 8.99605 19.0583C9.07472 19.1974 9.1487 19.3395 9.22208 19.481C9.41642 19.8561 9.481 20.2607 9.45047 20.681C9.42816 20.9887 9.32365 21.2717 9.16044 21.5271C8.98137 21.8065 8.75651 22.0414 8.49994 22.2445C8.27625 22.4212 8.09601 22.4964 7.82007 22.5193C7.73377 22.5269 7.63631 22.5298 7.53591 22.5334C7.35567 22.5398 7.1678 22.5463 7.02278 22.5756C6.67169 22.6461 6.34056 22.8075 6.09222 23.006C5.19394 23.724 3.94164 26.8645 5.46342 27.6236C5.92019 27.8514 6.39692 27.8619 6.88305 27.7803C7.71322 27.64 8.45826 27.2924 9.11464 26.7494C9.47043 26.4546 9.81741 26.1458 10.1515 25.8259C10.5125 25.4801 10.8143 25.0785 11.1155 24.6775C11.1601 24.6176 11.2053 24.5577 11.2505 24.4984C11.6592 23.9571 11.9932 23.3671 12.322 22.7729C12.3619 22.7013 12.4007 22.6302 12.4406 22.5586C12.6226 22.2281 12.8046 21.8958 13.0036 21.5764C13.3066 21.0897 13.5232 20.5648 13.7111 20.0223C13.8268 19.6871 13.9465 19.3536 14.0669 19.0201C14.1368 18.8252 14.2072 18.6297 14.2765 18.4342C14.3012 18.3643 14.3229 18.2927 14.3458 18.2158C14.3569 18.1788 14.3681 18.1412 14.3804 18.1019H14.3792C13.899 17.4108 13.3994 16.7016 12.9162 16.0159L12.9156 16.0153L12.9168 16.0135ZM76.0349 14.2346H76.0355L76.0372 14.234C76.0824 14.2305 76.1294 14.2264 76.1758 14.2223C76.9884 14.1524 77.7874 14.0003 78.5735 13.779C79.1331 13.6222 79.7043 13.5477 80.2756 13.4737C80.3284 13.4667 80.3807 13.4596 80.4329 13.4532C80.9231 13.3886 81.414 13.3387 81.9083 13.344C82.0727 13.3457 82.2377 13.3533 82.4009 13.3704C82.6469 13.3956 82.8072 13.5436 82.8952 13.779C82.9763 13.998 83.0162 14.2264 83.0115 14.46C83.0003 14.9597 82.9105 15.4405 82.6862 15.8891C82.4907 16.2801 82.2212 16.5742 81.8103 16.7228C81.3529 16.8883 80.8997 17.0668 80.4493 17.2523C80.2509 17.3339 80.0542 17.4191 79.857 17.5048C79.4642 17.6745 79.0714 17.8447 78.6681 17.9862C78.4203 18.0731 78.1731 18.1606 77.926 18.251C77.9054 18.258 77.8849 18.2645 77.8637 18.271C77.7921 18.2927 77.7193 18.3144 77.6635 18.3807C77.6571 18.6813 77.8127 18.9027 77.9677 19.1246C78.3457 19.6636 78.6534 20.2143 79.0368 20.7433C79.0608 20.7767 79.0861 20.8102 79.1119 20.8431C79.4049 21.2171 79.709 21.5834 80.0143 21.948C80.282 22.2668 80.5721 22.5627 80.8938 22.824C81.0142 22.922 81.1245 23.0336 81.2349 23.1445C81.2566 23.1674 81.2784 23.1897 81.3007 23.2115C81.6001 23.5121 81.4915 23.8461 81.2695 24.0557C81.0858 24.2289 80.8732 24.3452 80.646 24.4344C80.319 24.563 79.9803 24.6434 79.6321 24.6845C79.298 24.7244 78.964 24.7691 78.6305 24.8137H78.6299C78.4837 24.8331 78.3375 24.8524 78.1913 24.8718C77.7005 24.9358 77.2091 24.9816 76.7159 24.9035L76.6883 24.8994L76.659 24.8947C76.4676 24.8648 76.2733 24.8336 76.093 24.7655L76.0736 24.7579H76.0731C75.6357 24.5912 75.1947 24.4238 74.7949 24.169C74.5043 23.9841 74.253 23.7451 74.0663 23.444C73.9195 23.2062 73.7734 22.9678 73.6418 22.7218C73.2585 22.0044 72.8322 21.3157 72.4054 20.6264L72.3708 20.5712L72.3361 20.5143L72.3091 20.4714C72.2968 20.4521 72.285 20.4327 72.2733 20.4133L72.2375 20.3558C72.1512 20.2149 72.0684 20.0716 71.9862 19.9284C71.934 19.8379 71.8829 19.7475 71.8294 19.6583C71.7977 19.6043 71.7625 19.5532 71.732 19.508L71.7314 19.5074C71.7267 19.4998 71.7214 19.4927 71.7161 19.4857C71.7132 19.4816 71.7109 19.4775 71.7079 19.4734C71.7038 19.4675 71.7003 19.4622 71.6968 19.4569C71.5694 19.4088 71.4649 19.4317 71.3645 19.4534C71.3515 19.4557 71.3392 19.4587 71.3269 19.461C71.1936 19.4886 71.0609 19.515 70.9282 19.542C70.4621 19.636 69.9965 19.7299 69.5344 19.8415C68.8681 20.0023 68.1947 20.1209 67.5212 20.2395L67.4802 20.2472C66.8114 20.3652 66.1551 20.5413 65.5022 20.7315C65.4664 20.7421 65.4323 20.7591 65.393 20.7785C65.3724 20.7885 65.3501 20.7996 65.3261 20.8102C65.3137 20.8495 65.3002 20.8895 65.2867 20.93C65.2574 21.018 65.2268 21.109 65.2028 21.2006C65.1435 21.419 65.0859 21.638 65.029 21.8564C64.918 22.2797 64.8071 22.703 64.6861 23.1228C64.6027 23.4111 64.4859 23.6905 64.362 23.9636C64.2176 24.28 63.9734 24.4814 63.6393 24.5653C63.1949 24.6781 62.7428 24.7385 62.2872 24.7374C61.4893 24.7356 60.6908 24.7203 59.893 24.7045L59.6769 24.7004C59.6182 24.6998 59.5595 24.6986 59.5008 24.6974C59.3769 24.6951 59.2524 24.6698 59.1303 24.6458L59.128 24.6452C58.9829 24.6158 58.8837 24.5201 58.8415 24.3745C58.8109 24.2694 58.788 24.1596 58.7816 24.0504C58.7575 23.6518 58.8268 23.2625 58.9642 22.8944C59.236 22.1652 59.4614 21.4202 59.6869 20.6752C59.7227 20.5548 59.7591 20.435 59.7955 20.3153C59.8707 20.0681 59.9529 19.8244 60.0356 19.5802L60.0392 19.5696C60.055 19.5221 60.0709 19.4745 60.0873 19.4276C60.1654 19.1945 60.2446 18.9614 60.3239 18.7289V18.7277C60.4777 18.2768 60.631 17.8259 60.7783 17.3727C60.8711 17.0868 60.9574 16.7991 61.0437 16.5114C61.1188 16.2601 61.194 16.0088 61.2733 15.7593C61.3889 15.3959 61.5099 15.0336 61.649 14.679C61.8645 14.1283 62.0758 13.5759 62.2484 13.0081C62.3923 12.5367 62.562 12.0764 62.758 11.6249C62.9418 11.1993 63.1238 10.7718 63.3052 10.3444L63.3058 10.3432C63.3904 10.1436 63.4749 9.9446 63.56 9.74557C63.5735 9.71446 63.587 9.68451 63.6011 9.65399C63.6205 9.61171 63.6399 9.56944 63.6575 9.526C63.8595 9.01815 64.2376 8.70287 64.709 8.49738C65.0965 8.32888 65.5063 8.24023 65.9231 8.2232C66.4263 8.20207 66.9283 8.16978 67.4303 8.12927C68.0179 8.08113 68.608 8.07173 69.1986 8.11576C69.9812 8.17389 70.7574 8.28074 71.5324 8.39992C71.6369 8.41578 71.7431 8.44102 71.8418 8.47918C72.5216 8.74338 73.114 9.14907 73.6424 9.66925C74.216 10.2335 74.6329 10.9039 74.9599 11.6425C75.1061 11.9719 75.2353 12.3077 75.3392 12.6559C75.4378 12.9876 75.5499 13.3146 75.6615 13.6422L75.6627 13.6463C75.6967 13.7455 75.7302 13.8442 75.7637 13.9434C75.7666 13.9516 75.7695 13.9598 75.7719 13.9675H75.7725C75.8036 14.0632 75.8365 14.1618 75.9304 14.2428V14.244C75.9527 14.2422 75.9762 14.2399 76.0008 14.2381L76.0349 14.2346ZM65.8169 13.5876C65.8116 13.8148 65.8691 13.9804 65.9813 14.1289C66.0834 14.2645 66.1838 14.4025 66.2836 14.5405L66.3089 14.5757L66.3359 14.6127L66.3506 14.6327L66.3682 14.6567C66.4985 14.837 66.6294 15.0178 66.7604 15.198C67.0369 15.5802 67.3128 15.9619 67.5917 16.3411C67.7966 16.62 68.0326 16.795 68.4107 16.384C68.8252 15.9325 69.1951 15.4405 69.4945 14.8963C69.6166 14.6743 69.7305 14.4471 69.8444 14.2205L69.845 14.2193L69.8456 14.2187V14.2182C69.9237 14.0626 70.0018 13.907 70.0828 13.7526C70.273 13.3903 70.2261 13.0815 69.902 12.8244C69.3806 12.4093 68.8516 12.0036 68.3191 11.6038C68.0203 11.3795 67.7813 11.3912 67.5007 11.632C67.1954 11.8938 66.8895 12.158 66.6001 12.4386C66.4328 12.6013 66.2795 12.7815 66.1275 12.9606C66.0875 13.0075 66.0482 13.0545 66.0077 13.1009C65.8809 13.2483 65.8157 13.4256 65.8169 13.5876ZM47.3993 19.4358C47.4287 19.4963 47.458 19.5567 47.4868 19.6172L47.4874 19.6178C47.5443 19.7376 47.6019 19.8567 47.6641 19.9736C47.7422 20.1209 47.8238 20.2671 47.9048 20.4133L47.9054 20.4145C47.9835 20.556 48.0628 20.6969 48.1391 20.8401C48.7585 21.9985 49.4982 23.0676 50.336 24.0651C50.3924 24.1326 50.4564 24.1972 50.5257 24.2506C51.0729 24.6763 51.6776 24.7315 52.3181 24.5454C52.4209 24.516 52.5236 24.4837 52.6258 24.4514C52.8201 24.3904 53.0144 24.3293 53.2123 24.2835C54.0665 24.0868 54.8391 23.7076 55.5478 23.1804C55.691 23.0747 55.8179 22.9561 55.9065 22.7917C55.9834 22.6508 56.0615 22.5099 56.1384 22.3696L56.1396 22.3684C56.4279 21.8453 56.7161 21.3222 56.9492 20.7673C56.9985 20.6505 57.0478 20.5337 57.0977 20.4168C57.2369 20.091 57.3749 19.7651 57.4993 19.434C57.6696 18.9825 57.8281 18.5269 57.9872 18.0713V18.069C58.0395 17.9187 58.0917 17.769 58.1446 17.6193C58.3812 16.947 58.616 16.2748 58.8491 15.602C58.9454 15.3237 59.0411 15.0454 59.1368 14.7671V14.7659C59.263 14.399 59.3881 14.032 59.516 13.6663C59.637 13.3205 59.7591 12.9758 59.8812 12.6306C60.0033 12.2854 60.126 11.9402 60.2464 11.5944C60.5176 10.817 60.7854 10.0385 61.0525 9.26004C61.0948 9.13674 61.1353 9.01169 61.1617 8.88429C61.228 8.56549 61.1224 8.33417 60.8458 8.17859C60.6985 8.0958 60.5364 8.06703 60.3732 8.03827C60.035 7.97956 59.6975 8.00187 59.361 8.04238C58.572 8.13807 57.7935 8.29835 57.0173 8.47331C56.486 8.59367 56.0239 8.86374 55.5713 9.15671C55.3687 9.28763 55.239 9.48314 55.1791 9.73383C55.128 9.9493 55.0628 10.1612 54.9977 10.3726L54.9965 10.375C54.9765 10.4413 54.956 10.5071 54.936 10.5734C54.889 10.7302 54.8403 10.8875 54.7922 11.0443V11.0448L54.7916 11.046V11.0466L54.791 11.0472C54.7182 11.2826 54.6454 11.5186 54.5761 11.7552C54.538 11.8856 54.5045 12.0171 54.4699 12.1486C54.4182 12.3482 54.3665 12.5478 54.3014 12.7422C54.1088 13.3128 53.9074 13.8806 53.6896 14.4407C53.4166 15.1423 53.1747 15.8538 52.9757 16.5819C52.8988 16.8631 52.8166 17.1425 52.7344 17.4226C52.715 17.4889 52.6903 17.5606 52.5776 17.5488C52.5712 17.5377 52.5635 17.5259 52.5559 17.5148C52.5518 17.5083 52.5477 17.5024 52.5441 17.4972C52.516 17.4549 52.486 17.4097 52.4661 17.3592C52.4044 17.2007 52.3486 17.0392 52.3005 16.876C52.2524 16.7157 52.2071 16.5548 52.1614 16.3934C52.1085 16.2061 52.0557 16.0194 51.9993 15.8333C51.8525 15.3519 51.7198 14.8687 51.6817 14.3614C51.6735 14.2463 51.6558 14.1313 51.6376 14.0168C51.6306 13.9722 51.6236 13.9275 51.6171 13.8829C51.4762 12.9048 51.3893 11.9226 51.3875 10.9315C51.3864 10.5675 51.3729 10.2035 51.3594 9.8401C51.3535 9.67982 51.3476 9.51954 51.3429 9.35926C51.3417 9.32932 51.3406 9.29879 51.3365 9.26884C51.3136 9.12089 51.2419 8.99877 51.1204 8.92539C50.8856 8.78448 50.6454 8.6606 50.3642 8.63946C50.0143 8.61304 49.6673 8.6242 49.3221 8.67939C49.1677 8.70405 49.0139 8.73223 48.8595 8.76041C48.6416 8.80033 48.4238 8.83967 48.2048 8.86961C47.3964 8.97881 46.6408 9.24066 45.948 9.69156C45.6715 9.8718 45.4478 10.1019 45.3268 10.4272C45.2875 10.5317 45.2441 10.635 45.2006 10.7378C45.1736 10.8012 45.1466 10.864 45.1208 10.928C45.0685 11.0578 45.0151 11.1869 44.9622 11.3167L44.9617 11.3184C44.8254 11.6519 44.6881 11.9854 44.5618 12.3236C44.3252 12.9529 44.0751 13.5753 43.8045 14.19C43.7634 14.2827 43.7182 14.3749 43.673 14.4665C43.5602 14.6978 43.4463 14.9291 43.3935 15.1875C43.3882 15.2133 43.3729 15.2368 43.3588 15.2603C43.3524 15.2714 43.3453 15.2826 43.3395 15.2937C43.299 15.3736 43.2573 15.4528 43.2156 15.5315C43.124 15.7082 43.0318 15.8855 42.9449 16.0652C42.7935 16.3775 42.649 16.6934 42.504 17.0093V17.0099C42.4858 17.0486 42.4682 17.0874 42.4506 17.1261C42.4025 17.2312 42.3555 17.3375 42.3091 17.4431C42.2269 17.6304 42.1441 17.8183 42.0525 18.0009C41.7437 18.6121 41.429 19.2191 41.1138 19.8268L41.1132 19.828C41.0603 19.9295 41.0075 20.0323 40.9546 20.1339C40.8537 20.3288 40.7509 20.5237 40.6382 20.7116C40.1967 21.449 39.6847 22.133 39.1628 22.8081C39.053 22.9508 38.9391 23.0893 38.8258 23.2285L38.8252 23.2291L38.8246 23.2297C38.7189 23.3594 38.6133 23.4886 38.5105 23.6207C38.3632 23.8109 38.3679 23.9418 38.5035 24.1391C38.5733 24.2401 38.6573 24.3305 38.7712 24.3616C38.8604 24.3851 38.9479 24.4133 39.0354 24.4409C39.2062 24.4961 39.3771 24.5501 39.5562 24.5736C40.0476 24.637 40.5413 24.6481 41.0345 24.6563C41.7067 24.6681 42.3678 24.5882 43.0054 24.3487C43.3142 24.2319 43.6236 24.1168 43.933 24.0017L43.9342 24.0011C44.1785 23.9095 44.3757 23.7522 44.5325 23.5391C44.6505 23.3788 44.7673 23.2179 44.8765 23.0518C44.9253 22.9784 44.974 22.905 45.0233 22.8316C45.2059 22.5568 45.3891 22.2827 45.5558 21.9973C45.6932 21.7607 45.8094 21.51 45.9257 21.2605L45.9269 21.2582C46.1687 20.7374 46.3055 20.1562 46.6056 19.6683L46.6061 19.6677C46.6543 19.5896 46.7024 19.5115 46.7482 19.4311C46.7776 19.3782 46.8011 19.3207 46.824 19.2638C46.838 19.2279 46.8521 19.1927 46.868 19.1581C46.9103 19.0671 46.9531 18.9767 46.9966 18.8851C47.0259 18.8228 47.0318 18.75 47.1005 18.7729C47.259 18.8252 47.1445 18.9174 47.3993 19.4358ZM23.6526 18.9585C23.652 18.5305 23.6743 18.1594 23.7324 17.7889C23.7647 17.5811 23.7823 17.3692 23.7958 17.1584C23.8276 16.6846 23.8945 16.2161 24.0019 15.7552C24.0636 15.4892 24.1469 15.228 24.2303 14.9673C24.2509 14.9021 24.2714 14.8376 24.292 14.773C24.4751 14.1888 24.6612 13.6052 24.8515 13.0228C24.9384 12.7557 25.0329 12.4909 25.1327 12.2285C25.3646 11.6179 25.6311 11.0237 25.9388 10.4513C26.1566 10.0462 26.4572 9.72092 26.8846 9.55183C27.3097 9.38333 27.7377 9.22305 28.1674 9.06805C28.488 8.95298 28.818 8.87372 29.1561 8.8338C29.2988 8.81677 29.4415 8.79798 29.5836 8.7792C29.883 8.73986 30.1824 8.70052 30.4824 8.6788C30.7167 8.66177 30.9521 8.66882 31.1875 8.67645C31.2815 8.67939 31.3754 8.68174 31.4688 8.6835C31.6895 8.68643 31.8997 8.7516 32.1087 8.81677C32.1222 8.82088 32.1351 8.82499 32.1492 8.8291C32.2308 8.85435 32.3101 8.90014 32.3817 8.95004C32.5549 9.0704 32.5978 9.23127 32.495 9.42032C32.3811 9.6305 32.2561 9.8354 32.1263 10.0356C31.6989 10.6943 31.41 11.4165 31.1922 12.175C31.1282 12.3975 31.0548 12.6171 30.9809 12.8367C30.9333 12.9788 30.8858 13.1209 30.8405 13.2641C30.8241 13.3146 30.8083 13.3657 30.7924 13.4162C30.6991 13.7103 30.6057 14.0045 30.5288 14.3033C30.4683 14.5352 30.4325 14.7765 30.4055 15.0166C30.375 15.2861 30.3486 15.5562 30.3221 15.8262C30.2875 16.1779 30.2534 16.5296 30.2106 16.8801C30.1683 17.2218 30.1525 17.5629 30.1642 17.9058C30.1877 18.5721 30.2564 19.2326 30.4225 19.8796C30.5082 20.2137 30.6274 20.5325 30.8235 20.8125C30.9081 20.9329 31.0102 21.0445 31.1194 21.1407C31.3132 21.311 31.5281 21.3069 31.7388 21.1724C31.8122 21.1255 31.8774 21.0621 31.9384 20.9987C32.2015 20.7257 32.3987 20.4004 32.5749 20.064C32.6189 19.9794 32.6635 19.8949 32.7076 19.8109C32.9941 19.2673 33.2806 18.7236 33.5219 18.1565C33.6123 17.9457 33.6874 17.7261 33.755 17.506C33.9211 16.9664 34.146 16.4533 34.3879 15.9478C34.8933 14.8892 35.3237 13.7972 35.6284 12.6582C35.7447 12.2238 35.8732 11.794 36.0024 11.3636C36.1216 10.9668 36.2408 10.5693 36.3494 10.1689C36.3934 10.0062 36.4727 9.87709 36.5877 9.76377C36.7222 9.63109 36.8631 9.51014 37.0269 9.41856C37.1097 9.37276 37.1913 9.32462 37.2723 9.27706C37.368 9.2207 37.4637 9.16434 37.5606 9.1115C37.8365 8.9612 38.1271 8.85258 38.4277 8.76921C38.952 8.62302 39.4828 8.5103 40.0211 8.44043C40.4433 8.38583 40.866 8.33123 41.2887 8.28133C41.611 8.24375 41.9263 8.29894 42.2369 8.38114C42.3878 8.42106 42.5293 8.48799 42.6514 8.59308C42.7982 8.72048 42.8633 8.87489 42.8081 9.07568C42.7929 9.1297 42.7806 9.18489 42.7682 9.24008C42.7518 9.31229 42.7359 9.38568 42.713 9.45613C42.5416 9.99275 42.4107 10.5405 42.2862 11.09C42.2163 11.3995 42.1089 11.6948 42.0015 11.9907L41.9985 11.9995C41.9909 12.0212 41.9827 12.0429 41.975 12.0646C41.9345 12.175 41.8952 12.2854 41.8553 12.3964L41.8529 12.4028L41.85 12.4105C41.7009 12.8232 41.5517 13.2365 41.3979 13.6475C41.3797 13.6956 41.3621 13.7432 41.3439 13.7913C41.2012 14.1753 41.0574 14.5599 40.8625 14.9209C40.694 15.2344 40.556 15.5626 40.4186 15.8914C40.347 16.0623 40.2754 16.2325 40.1996 16.4004C39.9965 16.8519 39.7881 17.3011 39.5802 17.7496L39.5796 17.7502L39.5791 17.752C39.4716 17.9827 39.3648 18.214 39.2579 18.4459C39.0988 18.7911 38.9403 19.1364 38.7841 19.4833C38.6185 19.8497 38.4277 20.199 38.1841 20.5166C37.7355 21.102 37.2359 21.6368 36.6699 22.0983C36.1809 22.497 35.6401 22.8146 35.0824 23.0987C34.3591 23.4674 33.6011 23.7475 32.8367 24.0035C32.0324 24.2735 31.2063 24.4391 30.3603 24.4849C30.1883 24.4943 30.0163 24.5084 29.8442 24.5225C29.6787 24.536 29.5131 24.5495 29.3469 24.5589C28.5109 24.6058 27.6819 24.5595 26.8729 24.3158C26.3592 24.1614 25.8672 23.9594 25.4351 23.6166C25.2096 23.4387 25.0047 23.2402 24.828 23.013C24.6818 22.8257 24.5462 22.6279 24.4182 22.4265C24.1593 22.0191 23.9837 21.574 23.8886 21.0932C23.7448 20.371 23.6203 19.6477 23.6514 18.959L23.6526 18.9585Z" fill="#6754BD"/>
</svg>
